<?plantuml 1.2026.2?><svg xmlns="http://www.w3.org/2000/svg" xmlns:xlink="http://www.w3.org/1999/xlink" contentStyleType="text/css" data-diagram-type="DESCRIPTION" height="493px" preserveAspectRatio="none" style="width:667px;height:493px;background:#FFFFFF;" version="1.1" viewBox="0 0 667 493" width="667px" zoomAndPan="magnify"><defs/><g><!--cluster E-learning System--><g class="cluster" data-qualified-name="E-learning System" data-source-line="3" id="ent0002"><path d="M24.1,6 L169.0648,6 A3.75,3.75 0 0 1 171.5648,8.5 L178.5648,28.2969 L658.1,28.2969 A2.5,2.5 0 0 1 660.6,30.7969 L660.6,483.5 A2.5,2.5 0 0 1 658.1,486 L24.1,486 A2.5,2.5 0 0 1 21.6,483.5 L21.6,8.5 A2.5,2.5 0 0 1 24.1,6" fill="none" style="stroke:#000000;stroke-width:1.5;"/><line style="stroke:#000000;stroke-width:1.5;" x1="21.6" x2="178.5648" y1="28.2969" y2="28.2969"/><text fill="#000000" font-family="sans-serif" font-size="14" font-weight="bold" lengthAdjust="spacing" textLength="143.9648" x="25.6" y="20.9951">E-learning System</text></g><!--entity FE--><g class="entity" data-qualified-name="E-learning System.FE" data-source-line="5" id="ent0003"><rect fill="#F1F1F1" height="36.2969" rx="2.5" ry="2.5" style="stroke:#181818;stroke-width:0.5;" width="155.7549" x="335.6" y="41"/><text fill="#000000" font-family="sans-serif" font-size="14" lengthAdjust="spacing" textLength="135.7549" x="345.6" y="63.9951">Front-end Web App</text></g><!--entity Authentication Service--><g class="entity" data-qualified-name="E-learning System.Authentication Service" data-source-line="7" id="ent0004"><rect fill="#F1F1F1" height="36.2969" rx="2.5" ry="2.5" style="stroke:#181818;stroke-width:0.5;" width="178.9629" x="38.1" y="137"/><text fill="#000000" font-family="sans-serif" font-size="14" lengthAdjust="spacing" textLength="158.9629" x="48.1" y="159.9951">Authentication Service</text></g><!--entity Course Service--><g class="entity" data-qualified-name="E-learning System.Course Service" data-source-line="8" id="ent0005"><rect fill="#F1F1F1" height="36.2969" rx="2.5" ry="2.5" style="stroke:#181818;stroke-width:0.5;" width="125.0684" x="252.1" y="137"/><text fill="#000000" font-family="sans-serif" font-size="14" lengthAdjust="spacing" textLength="105.0684" x="262.1" y="159.9951">Course Service</text></g><!--entity Lesson Service--><g class="entity" data-qualified-name="E-learning System.Lesson Service" data-source-line="9" id="ent0006"><rect fill="#F1F1F1" height="36.2969" rx="2.5" ry="2.5" style="stroke:#181818;stroke-width:0.5;" width="124.6309" x="75.1" y="233"/><text fill="#000000" font-family="sans-serif" font-size="14" lengthAdjust="spacing" textLength="104.6309" x="85.1" y="255.9951">Lesson Service</text></g><!--entity Assessment Service--><g class="entity" data-qualified-name="E-learning System.Assessment Service" data-source-line="10" id="ent0007"><rect fill="#F1F1F1" height="36.2969" rx="2.5" ry="2.5" style="stroke:#181818;stroke-width:0.5;" width="160.1709" x="235.6" y="233"/><text fill="#000000" font-family="sans-serif" font-size="14" lengthAdjust="spacing" textLength="140.1709" x="245.6" y="255.9951">Assessment Service</text></g><!--entity Progress Service--><g class="entity" data-qualified-name="E-learning System.Progress Service" data-source-line="11" id="ent0008"><rect fill="#F1F1F1" height="36.2969" rx="2.5" ry="2.5" style="stroke:#181818;stroke-width:0.5;" width="136.7988" x="247.1" y="329"/><text fill="#000000" font-family="sans-serif" font-size="14" lengthAdjust="spacing" textLength="116.7988" x="257.1" y="351.9951">Progress Service</text></g><!--entity Group Service--><g class="entity" data-qualified-name="E-learning System.Group Service" data-source-line="12" id="ent0009"><rect fill="#F1F1F1" height="36.2969" rx="2.5" ry="2.5" style="stroke:#181818;stroke-width:0.5;" width="119.1211" x="448.1" y="329"/><text fill="#000000" font-family="sans-serif" font-size="14" lengthAdjust="spacing" textLength="99.1211" x="458.1" y="351.9951">Group Service</text></g><!--entity Teacher Dashboard Service--><g class="entity" data-qualified-name="E-learning System.Teacher Dashboard Service" data-source-line="13" id="ent0010"><rect fill="#F1F1F1" height="36.2969" rx="2.5" ry="2.5" style="stroke:#181818;stroke-width:0.5;" width="213.5254" x="430.6" y="233"/><text fill="#000000" font-family="sans-serif" font-size="14" lengthAdjust="spacing" textLength="193.5254" x="440.6" y="255.9951">Teacher Dashboard Service</text></g><!--entity Learning Database--><g class="entity" data-qualified-name="E-learning System.Learning Database" data-source-line="15" id="ent0011"><path d="M134.1,435 C134.1,425 210.3607,425 210.3607,425 C210.3607,425 286.6215,425 286.6215,435 L286.6215,460.2969 C286.6215,470.2969 210.3607,470.2969 210.3607,470.2969 C210.3607,470.2969 134.1,470.2969 134.1,460.2969 L134.1,435" fill="#F1F1F1" style="stroke:#181818;stroke-width:0.5;"/><path d="M134.1,435 C134.1,445 210.3607,445 210.3607,445 C210.3607,445 286.6215,445 286.6215,435" fill="none" style="stroke:#181818;stroke-width:0.5;"/><text fill="#000000" font-family="sans-serif" font-size="14" lengthAdjust="spacing" textLength="132.5215" x="144.1" y="461.9951">Learning Database</text></g><!--link FE to Authentication Service--><g class="link" data-entity-1="ent0003" data-entity-2="ent0004" data-link-type="dependency" data-source-line="17" id="lnk12"><path d="M361.81,77.02 C310.14,94.01 236.8999,118.0761 185.1899,135.0761" fill="none" id="FE-to-Authentication Service" style="stroke:#181818;stroke-width:1;"/><polygon fill="#181818" points="179.49,136.95,189.2891,137.9391,184.2399,135.3884,186.7906,130.3393,179.49,136.95" style="stroke:#181818;stroke-width:1;"/></g><!--link FE to Course Service--><g class="link" data-entity-1="ent0003" data-entity-2="ent0005" data-link-type="dependency" data-source-line="18" id="lnk13"><path d="M395.44,77.24 C377.58,94.2 354.8223,115.8199 336.9923,132.7399" fill="none" id="FE-to-Course Service" style="stroke:#181818;stroke-width:1;"/><polygon fill="#181818" points="332.64,136.87,341.9218,133.5763,336.2669,133.4282,336.415,127.7733,332.64,136.87" style="stroke:#181818;stroke-width:1;"/></g><!--link FE to Lesson Service--><g class="link" data-entity-1="ent0003" data-entity-2="ent0006" data-link-type="dependency" data-source-line="19" id="lnk14"><path d="M415.87,77.27 C418.06,101.69 418.16,146.3 394.6,173 C381.48,187.86 277.9725,215.5613 206.1925,233.4213" fill="none" id="FE-to-Lesson Service" style="stroke:#181818;stroke-width:1;"/><polygon fill="#181818" points="200.37,234.87,210.0695,236.5786,205.2221,233.6627,208.1379,228.8153,200.37,234.87" style="stroke:#181818;stroke-width:1;"/></g><!--link FE to Assessment Service--><g class="link" data-entity-1="ent0003" data-entity-2="ent0007" data-link-type="dependency" data-source-line="20" id="lnk15"><path d="M420.31,77.18 C428.22,100.32 438.39,142.17 422.6,173 C408.56,200.4 385.0546,217.4753 360.8546,230.1553" fill="none" id="FE-to-Assessment Service" style="stroke:#181818;stroke-width:1;"/><polygon fill="#181818" points="355.54,232.94,365.3684,232.306,359.9689,230.6194,361.6555,225.2199,355.54,232.94" style="stroke:#181818;stroke-width:1;"/></g><!--link FE to Teacher Dashboard Service--><g class="link" data-entity-1="ent0003" data-entity-2="ent0010" data-link-type="dependency" data-source-line="21" id="lnk16"><path d="M424.82,77.2 C448.43,113.37 499.7006,191.9355 523.2106,227.9555" fill="none" id="FE-to-Teacher Dashboard Service" style="stroke:#181818;stroke-width:1;"/><polygon fill="#181818" points="526.49,232.98,524.9205,223.257,523.7571,228.7929,518.2212,227.6296,526.49,232.98" style="stroke:#181818;stroke-width:1;"/></g><!--link Course Service to Lesson Service--><g class="link" data-entity-1="ent0005" data-entity-2="ent0006" data-link-type="dependency" data-source-line="23" id="lnk17"><path d="M282.55,173.02 C250.57,190.01 207.0087,213.1351 175.0087,230.1351" fill="none" id="Course Service-to-Lesson Service" style="stroke:#181818;stroke-width:1;"/><polygon fill="#181818" points="169.71,232.95,179.5347,232.2601,174.1256,230.6042,175.7814,225.1951,169.71,232.95" style="stroke:#181818;stroke-width:1;"/></g><!--link Assessment Service to Progress Service--><g class="link" data-entity-1="ent0007" data-entity-2="ent0008" data-link-type="dependency" data-source-line="24" id="lnk18"><path d="M315.6,269.24 C315.6,286.2 315.6,305.95 315.6,322.87" fill="none" id="Assessment Service-to-Progress Service" style="stroke:#181818;stroke-width:1;"/><polygon fill="#181818" points="315.6,328.87,319.6,319.87,315.6,323.87,311.6,319.87,315.6,328.87" style="stroke:#181818;stroke-width:1;"/></g><!--link Lesson Service to Progress Service--><g class="link" data-entity-1="ent0006" data-entity-2="ent0008" data-link-type="dependency" data-source-line="25" id="lnk19"><path d="M169.83,269.02 C201.99,286.01 245.8144,309.1481 278.0044,326.1481" fill="none" id="Lesson Service-to-Progress Service" style="stroke:#181818;stroke-width:1;"/><polygon fill="#181818" points="283.31,328.95,277.2196,321.21,278.8887,326.615,273.4837,328.2841,283.31,328.95" style="stroke:#181818;stroke-width:1;"/></g><!--link Teacher Dashboard Service to Progress Service--><g class="link" data-entity-1="ent0010" data-entity-2="ent0008" data-link-type="dependency" data-source-line="27" id="lnk20"><path d="M497.4,269.02 C457.29,286.01 401.5347,309.6096 361.4047,326.6096" fill="none" id="Teacher Dashboard Service-to-Progress Service" style="stroke:#181818;stroke-width:1;"/><polygon fill="#181818" points="355.88,328.95,365.7273,329.1225,360.4839,326.9997,362.6068,321.7563,355.88,328.95" style="stroke:#181818;stroke-width:1;"/></g><!--link Teacher Dashboard Service to Group Service--><g class="link" data-entity-1="ent0010" data-entity-2="ent0009" data-link-type="dependency" data-source-line="28" id="lnk21"><path d="M532.1,269.24 C526.68,286.2 520.2942,306.234 514.8942,323.154" fill="none" id="Teacher Dashboard Service-to-Group Service" style="stroke:#181818;stroke-width:1;"/><polygon fill="#181818" points="513.07,328.87,519.617,321.5122,514.5902,324.1067,511.9957,319.0799,513.07,328.87" style="stroke:#181818;stroke-width:1;"/></g><!--link Course Service to Learning Database--><g class="link" data-entity-1="ent0005" data-entity-2="ent0011" data-link-type="dependency" data-source-line="30" id="lnk22"><path d="M252.03,170.62 C179.84,188.12 69.47,217.05 57.6,233 C6,302.32 109.5937,382.7388 169.5137,421.5388" fill="none" id="Course Service-to-Learning Database" style="stroke:#181818;stroke-width:1;"/><polygon fill="#181818" points="174.55,424.8,169.1696,416.5507,170.3531,422.0823,164.8214,423.2658,174.55,424.8" style="stroke:#181818;stroke-width:1;"/></g><!--link Lesson Service to Learning Database--><g class="link" data-entity-1="ent0006" data-entity-2="ent0011" data-link-type="dependency" data-source-line="31" id="lnk23"><path d="M144.08,269.26 C157.41,304.78 185.7718,380.3426 200.3818,419.2726" fill="none" id="Lesson Service-to-Learning Database" style="stroke:#181818;stroke-width:1;"/><polygon fill="#181818" points="202.49,424.89,203.0727,415.0584,200.7332,420.2088,195.5828,417.8693,202.49,424.89" style="stroke:#181818;stroke-width:1;"/></g><!--link Assessment Service to Learning Database--><g class="link" data-entity-1="ent0007" data-entity-2="ent0011" data-link-type="dependency" data-source-line="32" id="lnk24"><path d="M288.16,269.07 C268.57,282.78 243.35,303.86 229.6,329 C213.04,359.28 210.0267,394.0501 209.9167,418.7501" fill="none" id="Assessment Service-to-Learning Database" style="stroke:#181818;stroke-width:1;"/><polygon fill="#181818" points="209.89,424.75,213.93,415.7679,209.9123,419.75,205.9301,415.7323,209.89,424.75" style="stroke:#181818;stroke-width:1;"/></g><!--link Progress Service to Learning Database--><g class="link" data-entity-1="ent0008" data-entity-2="ent0011" data-link-type="dependency" data-source-line="33" id="lnk25"><path d="M297.31,365.16 C279.68,381.69 257.3155,402.6745 238.1955,420.6145" fill="none" id="Progress Service-to-Learning Database" style="stroke:#181818;stroke-width:1;"/><polygon fill="#181818" points="233.82,424.72,243.1202,421.4788,237.4663,421.2988,237.6463,415.6448,233.82,424.72" style="stroke:#181818;stroke-width:1;"/></g><!--link Group Service to Learning Database--><g class="link" data-entity-1="ent0009" data-entity-2="ent0011" data-link-type="dependency" data-source-line="34" id="lnk26"><path d="M456.21,365.04 C406.15,381.65 335.5751,405.0518 281.3151,423.0418" fill="none" id="Group Service-to-Learning Database" style="stroke:#181818;stroke-width:1;"/><polygon fill="#181818" points="275.62,424.93,285.4215,425.8944,280.3659,423.3565,282.9039,418.3009,275.62,424.93" style="stroke:#181818;stroke-width:1;"/></g><?plantuml-src XP71QiCm38RlVWhXUrvX4DPabnq66UoiE28nJMmZEuCozkvrMTEjZjtTXFzFql_B_gYDGyO5b5sSDMH25qup0PCAQCQPX72eZZWIoAQQ2TbeCq9tye4M2Lz2t1f1jcnDgCWCy44zrCv9G0zjSmVLQvXYeHK6RGrqn9zQaVoBFDkLFMMbL_A-q5Lx7yNbKkVaDxOZHo0hlh1TNLPv9rGJCHpGJxr57dufCM307gFJQEjwcCFrAQfj0rNrL0wywMdQxJsDUfkNoRbfZzocY_9RSkD_oFq1q-OI9nxuAix-hoNvicAytSVaNUV0uYboy2v26RstNkJ4jpW3?></g></svg>