<?plantuml 1.2026.2?><svg xmlns="http://www.w3.org/2000/svg" xmlns:xlink="http://www.w3.org/1999/xlink" contentStyleType="text/css" data-diagram-type="DESCRIPTION" height="481px" preserveAspectRatio="none" style="width:717px;height:481px;background:#FFFFFF;" version="1.1" viewBox="0 0 717 481" width="717px" zoomAndPan="magnify"><defs/><g><!--entity Student--><g class="entity" data-qualified-name="Student" data-source-line="3" id="ent0002"><ellipse cx="33.5557" cy="167" fill="#F1F1F1" rx="8" ry="8" style="stroke:#181818;stroke-width:0.5;"/><path d="M33.5557,175 L33.5557,202 M20.5557,183 L46.5557,183 M33.5557,202 L20.5557,217 M33.5557,202 L46.5557,217" fill="none" style="stroke:#181818;stroke-width:0.5;"/><text fill="#000000" font-family="sans-serif" font-size="14" lengthAdjust="spacing" textLength="55.1113" x="6" y="231.4951">Student</text></g><!--entity Teacher--><g class="entity" data-qualified-name="Teacher" data-source-line="4" id="ent0003"><ellipse cx="207.3418" cy="167" fill="#F1F1F1" rx="8" ry="8" style="stroke:#181818;stroke-width:0.5;"/><path d="M207.3418,175 L207.3418,202 M194.3418,183 L220.3418,183 M207.3418,202 L194.3418,217 M207.3418,202 L220.3418,217" fill="none" style="stroke:#181818;stroke-width:0.5;"/><text fill="#000000" font-family="sans-serif" font-size="14" lengthAdjust="spacing" textLength="56.6836" x="179" y="231.4951">Teacher</text></g><!--entity Admin--><g class="entity" data-qualified-name="Admin" data-source-line="5" id="ent0004"><ellipse cx="360.4321" cy="167" fill="#F1F1F1" rx="8" ry="8" style="stroke:#181818;stroke-width:0.5;"/><path d="M360.4321,175 L360.4321,202 M347.4321,183 L373.4321,183 M360.4321,202 L347.4321,217 M360.4321,202 L373.4321,217" fill="none" style="stroke:#181818;stroke-width:0.5;"/><text fill="#000000" font-family="sans-serif" font-size="14" lengthAdjust="spacing" textLength="44.8643" x="338" y="231.4951">Admin</text></g><!--entity Author--><g class="entity" data-qualified-name="Author" data-source-line="6" id="ent0005"><ellipse cx="555.5669" cy="14" fill="#F1F1F1" rx="8" ry="8" style="stroke:#181818;stroke-width:0.5;"/><path d="M555.5669,22 L555.5669,49 M542.5669,30 L568.5669,30 M555.5669,49 L542.5669,64 M555.5669,49 L568.5669,64" fill="none" style="stroke:#181818;stroke-width:0.5;"/><text fill="#000000" font-family="sans-serif" font-size="14" lengthAdjust="spacing" textLength="47.1338" x="532" y="78.4951">Author</text></g><!--entity ELS--><g class="entity" data-qualified-name="ELS" data-source-line="8" id="ent0006"><rect fill="#F1F1F1" height="36.2969" rx="2.5" ry="2.5" style="stroke:#181818;stroke-width:0.5;" width="147.9141" x="209.5" y="326.5"/><text fill="#000000" font-family="sans-serif" font-size="14" lengthAdjust="spacing" textLength="127.9141" x="219.5" y="349.4951">E-learning System</text></g><!--entity IAM--><g class="entity" data-qualified-name="IAM" data-source-line="9" id="ent0007"><rect fill="#F1F1F1" height="36.2969" rx="2.5" ry="2.5" style="stroke:#181818;stroke-width:0.5;" width="102.4414" x="58.5" y="439.5"/><text fill="#000000" font-family="sans-serif" font-size="14" lengthAdjust="spacing" textLength="82.4414" x="68.5" y="462.4951">IAM System</text></g><!--entity CMS--><g class="entity" data-qualified-name="CMS" data-source-line="10" id="ent0008"><rect fill="#F1F1F1" height="36.2969" rx="2.5" ry="2.5" style="stroke:#181818;stroke-width:0.5;" width="275.124" x="418" y="178.5"/><text fill="#000000" font-family="sans-serif" font-size="14" lengthAdjust="spacing" textLength="255.124" x="428" y="201.4951">CMS (Content Management System)</text></g><!--entity LMS--><g class="entity" data-qualified-name="LMS" data-source-line="11" id="ent0009"><rect fill="#F1F1F1" height="36.2969" rx="2.5" ry="2.5" style="stroke:#181818;stroke-width:0.5;" width="165.5166" x="370.5" y="439.5"/><text fill="#000000" font-family="sans-serif" font-size="14" lengthAdjust="spacing" textLength="145.5166" x="380.5" y="462.4951">School System / LMS</text></g><!--link Student to ELS--><g class="link" data-entity-1="ent0002" data-entity-2="ent0006" data-link-type="dependency" data-source-line="13" id="lnk10"><path d="M31.59,234.6 C32.57,255.47 37.52,280.49 53.5,296.5 C75.13,318.17 144.6272,329.9332 203.2872,336.4932" fill="none" id="Student-to-ELS" style="stroke:#181818;stroke-width:1;"/><polygon fill="#181818" points="209.25,337.16,200.7503,332.1845,204.281,336.6043,199.8612,340.135,209.25,337.16" style="stroke:#181818;stroke-width:1;"/><text fill="#000000" font-family="sans-serif" font-size="13" lengthAdjust="spacing" textLength="90.5938" x="75.5012" y="277.5669">follow lessons</text><text fill="#000000" font-family="sans-serif" font-size="13" lengthAdjust="spacing" textLength="132.5962" x="54.5" y="292.6997">submit assessments</text></g><!--link Teacher to ELS--><g class="link" data-entity-1="ent0003" data-entity-2="ent0006" data-link-type="dependency" data-source-line="14" id="lnk11"><path d="M197.52,234.54 C194.33,254.16 193.96,277.96 204.5,296.5 C211.84,309.4 219.0278,316.2113 231.8878,323.3713" fill="none" id="Teacher-to-ELS" style="stroke:#181818;stroke-width:1;"/><polygon fill="#181818" points="237.13,326.29,231.2124,318.4171,232.7615,323.8577,227.3208,325.4068,237.13,326.29" style="stroke:#181818;stroke-width:1;"/><text fill="#000000" font-family="sans-serif" font-size="13" lengthAdjust="spacing" textLength="111.687" x="205.5" y="277.5669">monitor progress</text><text fill="#000000" font-family="sans-serif" font-size="13" lengthAdjust="spacing" textLength="107.4468" x="207.6201" y="292.6997">manage courses</text></g><!--link Admin to ELS--><g class="link" data-entity-1="ent0004" data-entity-2="ent0006" data-link-type="dependency" data-source-line="15" id="lnk12"><path d="M348.79,234.94 C342.08,254.01 332.75,277.19 321.5,296.5 C315.37,307.02 310.921,313.1085 303.591,321.5985" fill="none" id="Admin-to-ELS" style="stroke:#181818;stroke-width:1;"/><polygon fill="#181818" points="299.67,326.14,308.5792,321.9417,302.9375,322.3554,302.5238,316.7137,299.67,326.14" style="stroke:#181818;stroke-width:1;"/><text fill="#000000" font-family="sans-serif" font-size="13" lengthAdjust="spacing" textLength="92.3457" x="342.3433" y="277.5669">manage users</text><text fill="#000000" font-family="sans-serif" font-size="13" lengthAdjust="spacing" textLength="102.0322" x="337.5" y="292.6997">manage groups</text></g><!--link Author to CMS--><g class="link" data-entity-1="ent0005" data-entity-2="ent0008" data-link-type="dependency" data-source-line="16" id="lnk13"><path d="M555.5,81.83 C555.5,112.57 555.5,148.77 555.5,172.14" fill="none" id="Author-to-CMS" style="stroke:#181818;stroke-width:1;"/><polygon fill="#181818" points="555.5,178.14,559.5,169.14,555.5,173.14,551.5,169.14,555.5,178.14" style="stroke:#181818;stroke-width:1;"/><text fill="#000000" font-family="sans-serif" font-size="13" lengthAdjust="spacing" textLength="152.8516" x="556.5" y="124.5669">create learning content</text></g><!--link CMS to ELS--><g class="link" data-entity-1="ent0008" data-entity-2="ent0006" data-link-type="dependency" data-source-line="18" id="lnk14"><path d="M541.41,214.82 C522.52,236.94 486.89,274.92 448.5,296.5 C420.72,312.12 393.1559,321.4553 363.7159,328.7053" fill="none" id="CMS-to-ELS" style="stroke:#181818;stroke-width:1;"/><polygon fill="#181818" points="357.89,330.14,367.5854,331.8719,362.745,328.9444,365.6724,324.104,357.89,330.14" style="stroke:#181818;stroke-width:1;"/><text fill="#000000" font-family="sans-serif" font-size="13" lengthAdjust="spacing" textLength="148.4717" x="491.5" y="285.0669">publish course content</text></g><!--link ELS to IAM--><g class="link" data-entity-1="ent0006" data-entity-2="ent0007" data-link-type="dependency" data-source-line="19" id="lnk15"><path d="M209.19,348.68 C141.17,353.34 47.67,364.74 24.5,392.5 C8.75,411.36 26.8167,425.4869 53.0867,437.0269" fill="none" id="ELS-to-IAM" style="stroke:#181818;stroke-width:1;"/><polygon fill="#181818" points="58.58,439.44,51.9488,432.1581,54.0022,437.4291,48.7312,439.4825,58.58,439.44" style="stroke:#181818;stroke-width:1;"/><text fill="#000000" font-family="sans-serif" font-size="13" lengthAdjust="spacing" textLength="121.9575" x="25.5" y="405.5669">authenticate users</text></g><!--link IAM to ELS--><g class="link" data-entity-1="ent0007" data-entity-2="ent0006" data-link-type="dependency" data-source-line="20" id="lnk16"><path d="M128.97,439.28 C144.88,425.68 168.3,406.68 190.5,392.5 C207.88,381.4 222.812,373.4688 240.042,365.1888" fill="none" id="IAM-to-ELS" style="stroke:#181818;stroke-width:1;"/><polygon fill="#181818" points="245.45,362.59,235.6055,362.8829,240.9434,364.7557,239.0706,370.0936,245.45,362.59" style="stroke:#181818;stroke-width:1;"/><text fill="#000000" font-family="sans-serif" font-size="13" lengthAdjust="spacing" textLength="144.0347" x="191.5" y="405.5669">provide identity/token</text></g><!--link LMS to ELS--><g class="link" data-entity-1="ent0009" data-entity-2="ent0006" data-link-type="dependency" data-source-line="22" id="lnk17"><path d="M475.49,439.42 C490.01,426.06 504.37,407.33 492.5,392.5 C475.63,371.41 416.5731,359.869 363.4831,353.189" fill="none" id="LMS-to-ELS" style="stroke:#181818;stroke-width:1;"/><polygon fill="#181818" points="357.53,352.44,365.9602,357.5323,362.4909,353.0642,366.959,349.5948,357.53,352.44" style="stroke:#181818;stroke-width:1;"/><text fill="#000000" font-family="sans-serif" font-size="13" lengthAdjust="spacing" textLength="80.0313" x="497.5" y="405.5669">open course</text></g><!--link ELS to LMS--><g class="link" data-entity-1="ent0006" data-entity-2="ent0009" data-link-type="dependency" data-source-line="23" id="lnk18"><path d="M304.86,362.61 C321.93,375.99 346.7,394.72 369.5,409.5 C385.91,420.13 399.5827,428.0052 415.3327,436.5252" fill="none" id="ELS-to-LMS" style="stroke:#181818;stroke-width:1;"/><polygon fill="#181818" points="420.61,439.38,414.5972,431.5796,416.2122,437.001,410.7908,438.616,420.61,439.38" style="stroke:#181818;stroke-width:1;"/><text fill="#000000" font-family="sans-serif" font-size="13" lengthAdjust="spacing" textLength="113.4009" x="370.5" y="405.5669">progress updates</text></g><?plantuml-src LL0xRyCW4Dxv5QTCxH1rpr0fYZ9KiYSwPY7uQgF07UBHAl--GAZZJd1yB-wBDqDU1UL0i_DCI4cckqK8g9EYsQ8GIYSE85EU2jgdJrHwmT2du-GC_TrpMZW8iVh1xhotg08Pca7UOqAt0nNXFCWjwUCuRj4oRj7JAE7bn9JgD2fICxfwVIXUcwHmjXAf5sRR6V06moWRhPn2z6rWlt-l7u43VB6r_0CMOsIA5uhvwamgWbXUQbOKVUcDo36PkhGFF8V2kv1hVojjvb24eZMp5JpW734yoNFWx0ktDTV8TTq3w80g8QpbwSV-GbJuwUdprPguzCoLLS5AgiKUG1NpycfqTMpneW8Rby3VPa8mjHUJxc-9RqX23F-os2Fre3LW6Bk-LG3PJoKZ_W80?></g></svg>