<?plantuml 1.2026.2?><svg xmlns="http://www.w3.org/2000/svg" xmlns:xlink="http://www.w3.org/1999/xlink" contentStyleType="text/css" data-diagram-type="CLASS" height="838px" preserveAspectRatio="none" style="width:740px;height:838px;background:#FFFFFF;" version="1.1" viewBox="0 0 740 838" width="740px" zoomAndPan="magnify"><defs/><g><!--class Course--><g class="entity" data-qualified-name="Course" data-source-line="3" id="ent0002"><rect fill="#F1F1F1" height="129.4844" rx="2.5" ry="2.5" style="stroke:#181818;stroke-width:0.5;" width="175.5635" x="283" y="7"/><ellipse cx="342.0933" cy="23" fill="#ADD1B2" rx="11" ry="11" style="stroke:#181818;stroke-width:1;"/><path d="M346.2026,29 L338.4839,29 L338.4839,16.6094 L346.2026,16.6094 L346.2026,18.7656 L340.937,18.7656 L340.937,21.4375 L345.7026,21.4375 L345.7026,23.5938 L340.937,23.5938 L340.937,26.8438 L346.2026,26.8438 L346.2026,29 Z " fill="#000000"/><text fill="#000000" font-family="sans-serif" font-size="14" lengthAdjust="spacing" textLength="48.877" x="362.5933" y="27.8467">Course</text><line style="stroke:#181818;stroke-width:0.5;" x1="284" x2="457.5635" y1="39" y2="39"/><g data-visibility-modifier="PUBLIC_FIELD"><ellipse cx="294" cy="52.6484" fill="none" rx="3" ry="3" style="stroke:#038048;stroke-width:1;"/></g><text fill="#000000" font-family="sans-serif" font-size="14" lengthAdjust="spacing" textLength="115.5957" x="303" y="55.9951">course_id : UUID</text><line style="stroke:#181818;stroke-width:1;" x1="284" x2="457.5635" y1="63.2969" y2="63.2969"/><text fill="#000000" font-family="sans-serif" font-size="14" lengthAdjust="spacing" textLength="81.1768" x="289" y="80.292">title : string</text><text fill="#000000" font-family="sans-serif" font-size="14" lengthAdjust="spacing" textLength="104.5488" x="289" y="96.5889">subject : string</text><text fill="#000000" font-family="sans-serif" font-size="14" lengthAdjust="spacing" textLength="163.5635" x="289" y="112.8857">education_level : string</text><text fill="#000000" font-family="sans-serif" font-size="14" lengthAdjust="spacing" textLength="119.335" x="289" y="129.1826">description : text</text></g><!--class Module--><g class="entity" data-qualified-name="Module" data-source-line="12" id="ent0003"><rect fill="#F1F1F1" height="96.8906" rx="2.5" ry="2.5" style="stroke:#181818;stroke-width:0.5;" width="147.2627" x="193.5" y="205"/><ellipse cx="237.46" cy="221" fill="#ADD1B2" rx="11" ry="11" style="stroke:#181818;stroke-width:1;"/><path d="M241.5693,227 L233.8506,227 L233.8506,214.6094 L241.5693,214.6094 L241.5693,216.7656 L236.3037,216.7656 L236.3037,219.4375 L241.0693,219.4375 L241.0693,221.5938 L236.3037,221.5938 L236.3037,224.8438 L241.5693,224.8438 L241.5693,227 Z " fill="#000000"/><text fill="#000000" font-family="sans-serif" font-size="14" lengthAdjust="spacing" textLength="50.9072" x="257.8955" y="225.8467">Module</text><line style="stroke:#181818;stroke-width:0.5;" x1="194.5" x2="339.7627" y1="237" y2="237"/><g data-visibility-modifier="PUBLIC_FIELD"><ellipse cx="204.5" cy="250.6484" fill="none" rx="3" ry="3" style="stroke:#038048;stroke-width:1;"/></g><text fill="#000000" font-family="sans-serif" font-size="14" lengthAdjust="spacing" textLength="121.2627" x="213.5" y="253.9951">module_id : UUID</text><line style="stroke:#181818;stroke-width:1;" x1="194.5" x2="339.7627" y1="261.2969" y2="261.2969"/><text fill="#000000" font-family="sans-serif" font-size="14" lengthAdjust="spacing" textLength="81.1768" x="199.5" y="278.292">title : string</text><text fill="#000000" font-family="sans-serif" font-size="14" lengthAdjust="spacing" textLength="114.9941" x="199.5" y="294.5889">order_index : int</text></g><!--class Lesson--><g class="entity" data-qualified-name="Lesson" data-source-line="19" id="ent0004"><rect fill="#F1F1F1" height="113.1875" rx="2.5" ry="2.5" style="stroke:#181818;stroke-width:0.5;" width="139.3262" x="197.5" y="371"/><ellipse cx="238.999" cy="387" fill="#ADD1B2" rx="11" ry="11" style="stroke:#181818;stroke-width:1;"/><path d="M243.1084,393 L235.3896,393 L235.3896,380.6094 L243.1084,380.6094 L243.1084,382.7656 L237.8428,382.7656 L237.8428,385.4375 L242.6084,385.4375 L242.6084,387.5938 L237.8428,387.5938 L237.8428,390.8438 L243.1084,390.8438 L243.1084,393 Z " fill="#000000"/><text fill="#000000" font-family="sans-serif" font-size="14" lengthAdjust="spacing" textLength="48.4395" x="258.8877" y="391.8467">Lesson</text><line style="stroke:#181818;stroke-width:0.5;" x1="198.5" x2="335.8262" y1="403" y2="403"/><g data-visibility-modifier="PUBLIC_FIELD"><ellipse cx="208.5" cy="416.6484" fill="none" rx="3" ry="3" style="stroke:#038048;stroke-width:1;"/></g><text fill="#000000" font-family="sans-serif" font-size="14" lengthAdjust="spacing" textLength="113.3262" x="217.5" y="419.9951">lesson_id : UUID</text><line style="stroke:#181818;stroke-width:1;" x1="198.5" x2="335.8262" y1="427.2969" y2="427.2969"/><text fill="#000000" font-family="sans-serif" font-size="14" lengthAdjust="spacing" textLength="81.1768" x="203.5" y="444.292">title : string</text><text fill="#000000" font-family="sans-serif" font-size="14" lengthAdjust="spacing" textLength="114.9941" x="203.5" y="460.5889">order_index : int</text><text fill="#000000" font-family="sans-serif" font-size="14" lengthAdjust="spacing" textLength="96.8242" x="203.5" y="476.8857">status : string</text></g><!--class Content--><g class="entity" data-qualified-name="Content" data-source-line="27" id="ent0005"><rect fill="#F1F1F1" height="113.1875" rx="2.5" ry="2.5" style="stroke:#181818;stroke-width:0.5;" width="148.3975" x="7" y="561"/><ellipse cx="49.3234" cy="577" fill="#ADD1B2" rx="11" ry="11" style="stroke:#181818;stroke-width:1;"/><path d="M53.4328,583 L45.7141,583 L45.7141,570.6094 L53.4328,570.6094 L53.4328,572.7656 L48.1672,572.7656 L48.1672,575.4375 L52.9328,575.4375 L52.9328,577.5938 L48.1672,577.5938 L48.1672,580.8438 L53.4328,580.8438 L53.4328,583 Z " fill="#000000"/><text fill="#000000" font-family="sans-serif" font-size="14" lengthAdjust="spacing" textLength="55.6787" x="69.3953" y="581.8467">Content</text><line style="stroke:#181818;stroke-width:0.5;" x1="8" x2="154.3975" y1="593" y2="593"/><g data-visibility-modifier="PUBLIC_FIELD"><ellipse cx="18" cy="606.6484" fill="none" rx="3" ry="3" style="stroke:#038048;stroke-width:1;"/></g><text fill="#000000" font-family="sans-serif" font-size="14" lengthAdjust="spacing" textLength="122.3975" x="27" y="609.9951">content_id : UUID</text><line style="stroke:#181818;stroke-width:1;" x1="8" x2="154.3975" y1="617.2969" y2="617.2969"/><text fill="#000000" font-family="sans-serif" font-size="14" lengthAdjust="spacing" textLength="85.0801" x="13" y="634.292">type : string</text><text fill="#000000" font-family="sans-serif" font-size="14" lengthAdjust="spacing" textLength="76.1182" x="13" y="650.5889">body : text</text><text fill="#000000" font-family="sans-serif" font-size="14" lengthAdjust="spacing" textLength="114.9941" x="13" y="666.8857">order_index : int</text></g><!--class Exercise--><g class="entity" data-qualified-name="Exercise" data-source-line="35" id="ent0006"><rect fill="#F1F1F1" height="113.1875" rx="2.5" ry="2.5" style="stroke:#181818;stroke-width:0.5;" width="153.5586" x="190" y="561"/><ellipse cx="233.154" cy="577" fill="#ADD1B2" rx="11" ry="11" style="stroke:#181818;stroke-width:1;"/><path d="M237.2634,583 L229.5446,583 L229.5446,570.6094 L237.2634,570.6094 L237.2634,572.7656 L231.9978,572.7656 L231.9978,575.4375 L236.7634,575.4375 L236.7634,577.5938 L231.9978,577.5938 L231.9978,580.8438 L237.2634,580.8438 L237.2634,583 Z " fill="#000000"/><text fill="#000000" font-family="sans-serif" font-size="14" lengthAdjust="spacing" textLength="58.9941" x="253.4104" y="581.8467">Exercise</text><line style="stroke:#181818;stroke-width:0.5;" x1="191" x2="342.5586" y1="593" y2="593"/><g data-visibility-modifier="PUBLIC_FIELD"><ellipse cx="201" cy="606.6484" fill="none" rx="3" ry="3" style="stroke:#038048;stroke-width:1;"/></g><text fill="#000000" font-family="sans-serif" font-size="14" lengthAdjust="spacing" textLength="127.5586" x="210" y="609.9951">exercise_id : UUID</text><line style="stroke:#181818;stroke-width:1;" x1="191" x2="342.5586" y1="617.2969" y2="617.2969"/><text fill="#000000" font-family="sans-serif" font-size="14" lengthAdjust="spacing" textLength="85.0801" x="196" y="634.292">type : string</text><text fill="#000000" font-family="sans-serif" font-size="14" lengthAdjust="spacing" textLength="136.8555" x="196" y="650.5889">question_text : text</text><text fill="#000000" font-family="sans-serif" font-size="14" lengthAdjust="spacing" textLength="114.9941" x="196" y="666.8857">order_index : int</text></g><!--class AnswerOption--><g class="entity" data-qualified-name="AnswerOption" data-source-line="43" id="ent0007"><rect fill="#F1F1F1" height="96.8906" rx="2.5" ry="2.5" style="stroke:#181818;stroke-width:0.5;" width="149.3477" x="192.5" y="735"/><ellipse cx="216.0772" cy="751" fill="#ADD1B2" rx="11" ry="11" style="stroke:#181818;stroke-width:1;"/><path d="M220.1866,757 L212.4679,757 L212.4679,744.6094 L220.1866,744.6094 L220.1866,746.7656 L214.921,746.7656 L214.921,749.4375 L219.6866,749.4375 L219.6866,751.5938 L214.921,751.5938 L214.921,754.8438 L220.1866,754.8438 L220.1866,757 Z " fill="#000000"/><text fill="#000000" font-family="sans-serif" font-size="14" lengthAdjust="spacing" textLength="98.2871" x="231.9833" y="755.8467">AnswerOption</text><line style="stroke:#181818;stroke-width:0.5;" x1="193.5" x2="340.8477" y1="767" y2="767"/><g data-visibility-modifier="PUBLIC_FIELD"><ellipse cx="203.5" cy="780.6484" fill="none" rx="3" ry="3" style="stroke:#038048;stroke-width:1;"/></g><text fill="#000000" font-family="sans-serif" font-size="14" lengthAdjust="spacing" textLength="119.3623" x="212.5" y="783.9951">answer_id : UUID</text><line style="stroke:#181818;stroke-width:1;" x1="193.5" x2="340.8477" y1="791.2969" y2="791.2969"/><text fill="#000000" font-family="sans-serif" font-size="14" lengthAdjust="spacing" textLength="81.6826" x="198.5" y="808.292">text : string</text><text fill="#000000" font-family="sans-serif" font-size="14" lengthAdjust="spacing" textLength="137.3477" x="198.5" y="824.5889">is_correct : boolean</text></g><!--class Assessment--><g class="entity" data-qualified-name="Assessment" data-source-line="50" id="ent0008"><rect fill="#F1F1F1" height="113.1875" rx="2.5" ry="2.5" style="stroke:#181818;stroke-width:0.5;" width="200.0498" x="376" y="197"/><ellipse cx="429.7852" cy="213" fill="#ADD1B2" rx="11" ry="11" style="stroke:#181818;stroke-width:1;"/><path d="M433.8945,219 L426.1758,219 L426.1758,206.6094 L433.8945,206.6094 L433.8945,208.7656 L428.6289,208.7656 L428.6289,211.4375 L433.3945,211.4375 L433.3945,213.5938 L428.6289,213.5938 L428.6289,216.8438 L433.8945,216.8438 L433.8945,219 Z " fill="#000000"/><text fill="#000000" font-family="sans-serif" font-size="14" lengthAdjust="spacing" textLength="83.9795" x="450.2852" y="217.8467">Assessment</text><line style="stroke:#181818;stroke-width:0.5;" x1="377" x2="575.0498" y1="229" y2="229"/><g data-visibility-modifier="PUBLIC_FIELD"><ellipse cx="387" cy="242.6484" fill="none" rx="3" ry="3" style="stroke:#038048;stroke-width:1;"/></g><text fill="#000000" font-family="sans-serif" font-size="14" lengthAdjust="spacing" textLength="151.7783" x="396" y="245.9951">assessment_id : UUID</text><line style="stroke:#181818;stroke-width:1;" x1="377" x2="575.0498" y1="253.2969" y2="253.2969"/><text fill="#000000" font-family="sans-serif" font-size="14" lengthAdjust="spacing" textLength="81.1768" x="382" y="270.292">title : string</text><text fill="#000000" font-family="sans-serif" font-size="14" lengthAdjust="spacing" textLength="188.0498" x="382" y="286.5889">scheduled_start : datetime</text><text fill="#000000" font-family="sans-serif" font-size="14" lengthAdjust="spacing" textLength="181.8154" x="382" y="302.8857">scheduled_end : datetime</text></g><!--class User--><g class="entity" data-qualified-name="User" data-source-line="58" id="ent0009"><rect fill="#F1F1F1" height="113.1875" rx="2.5" ry="2.5" style="stroke:#181818;stroke-width:0.5;" width="125.333" x="510.5" y="371"/><ellipse cx="553.1403" cy="387" fill="#ADD1B2" rx="11" ry="11" style="stroke:#181818;stroke-width:1;"/><path d="M557.2497,393 L549.5309,393 L549.5309,380.6094 L557.2497,380.6094 L557.2497,382.7656 L551.984,382.7656 L551.984,385.4375 L556.7497,385.4375 L556.7497,387.5938 L551.984,387.5938 L551.984,390.8438 L557.2497,390.8438 L557.2497,393 Z " fill="#000000"/><text fill="#000000" font-family="sans-serif" font-size="14" lengthAdjust="spacing" textLength="31.9102" x="573.2826" y="391.8467">User</text><line style="stroke:#181818;stroke-width:0.5;" x1="511.5" x2="634.833" y1="403" y2="403"/><g data-visibility-modifier="PUBLIC_FIELD"><ellipse cx="521.5" cy="416.6484" fill="none" rx="3" ry="3" style="stroke:#038048;stroke-width:1;"/></g><text fill="#000000" font-family="sans-serif" font-size="14" lengthAdjust="spacing" textLength="99.333" x="530.5" y="419.9951">user_id : UUID</text><line style="stroke:#181818;stroke-width:1;" x1="511.5" x2="634.833" y1="427.2969" y2="427.2969"/><text fill="#000000" font-family="sans-serif" font-size="14" lengthAdjust="spacing" textLength="93.5088" x="516.5" y="444.292">name : string</text><text fill="#000000" font-family="sans-serif" font-size="14" lengthAdjust="spacing" textLength="92.415" x="516.5" y="460.5889">email : string</text><text fill="#000000" font-family="sans-serif" font-size="14" lengthAdjust="spacing" textLength="80.6299" x="516.5" y="476.8857">role : string</text></g><!--class Group--><g class="entity" data-qualified-name="Group" data-source-line="66" id="ent0010"><rect fill="#F1F1F1" height="80.5938" rx="2.5" ry="2.5" style="stroke:#181818;stroke-width:0.5;" width="135.7646" x="598" y="577"/><ellipse cx="640.3757" cy="593" fill="#ADD1B2" rx="11" ry="11" style="stroke:#181818;stroke-width:1;"/><path d="M644.4851,599 L636.7664,599 L636.7664,586.6094 L644.4851,586.6094 L644.4851,588.7656 L639.2195,588.7656 L639.2195,591.4375 L643.9851,591.4375 L643.9851,593.5938 L639.2195,593.5938 L639.2195,596.8438 L644.4851,596.8438 L644.4851,599 Z " fill="#000000"/><text fill="#000000" font-family="sans-serif" font-size="14" lengthAdjust="spacing" textLength="42.9297" x="660.4592" y="597.8467">Group</text><line style="stroke:#181818;stroke-width:0.5;" x1="599" x2="732.7646" y1="609" y2="609"/><g data-visibility-modifier="PUBLIC_FIELD"><ellipse cx="609" cy="622.6484" fill="none" rx="3" ry="3" style="stroke:#038048;stroke-width:1;"/></g><text fill="#000000" font-family="sans-serif" font-size="14" lengthAdjust="spacing" textLength="109.7646" x="618" y="625.9951">group_id : UUID</text><line style="stroke:#181818;stroke-width:1;" x1="599" x2="732.7646" y1="633.2969" y2="633.2969"/><text fill="#000000" font-family="sans-serif" font-size="14" lengthAdjust="spacing" textLength="93.5088" x="604" y="650.292">name : string</text></g><!--class StudentProgress--><g class="entity" data-qualified-name="StudentProgress" data-source-line="72" id="ent0011"><rect fill="#F1F1F1" height="113.1875" rx="2.5" ry="2.5" style="stroke:#181818;stroke-width:0.5;" width="184.1631" x="379" y="561"/><ellipse cx="410.4" cy="577" fill="#ADD1B2" rx="11" ry="11" style="stroke:#181818;stroke-width:1;"/><path d="M414.5093,583 L406.7906,583 L406.7906,570.6094 L414.5093,570.6094 L414.5093,572.7656 L409.2437,572.7656 L409.2437,575.4375 L414.0093,575.4375 L414.0093,577.5938 L409.2437,577.5938 L409.2437,580.8438 L414.5093,580.8438 L414.5093,583 Z " fill="#000000"/><text fill="#000000" font-family="sans-serif" font-size="14" lengthAdjust="spacing" textLength="115.7188" x="428.0444" y="581.8467">StudentProgress</text><line style="stroke:#181818;stroke-width:0.5;" x1="380" x2="562.1631" y1="593" y2="593"/><g data-visibility-modifier="PUBLIC_FIELD"><ellipse cx="390" cy="606.6484" fill="none" rx="3" ry="3" style="stroke:#038048;stroke-width:1;"/></g><text fill="#000000" font-family="sans-serif" font-size="14" lengthAdjust="spacing" textLength="129.8486" x="399" y="609.9951">progress_id : UUID</text><line style="stroke:#181818;stroke-width:1;" x1="380" x2="562.1631" y1="617.2969" y2="617.2969"/><text fill="#000000" font-family="sans-serif" font-size="14" lengthAdjust="spacing" textLength="96.8242" x="385" y="634.292">status : string</text><text fill="#000000" font-family="sans-serif" font-size="14" lengthAdjust="spacing" textLength="69.7949" x="385" y="650.5889">score : int</text><text fill="#000000" font-family="sans-serif" font-size="14" lengthAdjust="spacing" textLength="172.1631" x="385" y="666.8857">completed_at : datetime</text></g><!--link Course to Module--><g class="link" data-entity-1="ent0002" data-entity-2="ent0003" data-link-type="crowfoot" data-source-line="82" id="lnk12"><path codeLine="82" d="M330.1889,143.1375 C317.1589,165.6975 315.7331,168.1434 303.6031,189.1434" fill="none" id="Course-Module" style="stroke:#181818;stroke-width:1;"/><line style="stroke:#181818;stroke-width:1;" x1="328.7257" x2="335.6532" y1="137.6732" y2="141.6743"/><line style="stroke:#181818;stroke-width:1;" x1="327.2252" x2="334.1528" y1="140.271" y2="144.2722"/><line style="stroke:#181818;stroke-width:1;" x1="330.1889" x2="334.19" y1="143.1375" y2="136.21"/><line style="stroke:#181818;stroke-width:1;" x1="298.6014" x2="299.7955" y1="197.8026" y2="207.731"/><line style="stroke:#181818;stroke-width:1;" x1="298.6014" x2="289.4045" y1="197.8026" y2="201.729"/><line style="stroke:#181818;stroke-width:1;" x1="298.6014" x2="294.6" y1="197.8026" y2="204.73"/><ellipse cx="301.6024" cy="192.6071" fill="none" rx="4" ry="4" style="stroke:#181818;stroke-width:1;"/></g><!--link Module to Lesson--><g class="link" data-entity-1="ent0003" data-entity-2="ent0004" data-link-type="crowfoot" data-source-line="83" id="lnk13"><path codeLine="83" d="M267,310.41 C267,331.68 267,330.85 267,352.94" fill="none" id="Module-Lesson" style="stroke:#181818;stroke-width:1;"/><line style="stroke:#181818;stroke-width:1;" x1="263" x2="271" y1="306.41" y2="306.41"/><line style="stroke:#181818;stroke-width:1;" x1="263" x2="271" y1="309.41" y2="309.41"/><line style="stroke:#181818;stroke-width:1;" x1="267" x2="267" y1="310.41" y2="302.41"/><line style="stroke:#181818;stroke-width:1;" x1="267" x2="273" y1="362.94" y2="370.94"/><line style="stroke:#181818;stroke-width:1;" x1="267" x2="261" y1="362.94" y2="370.94"/><line style="stroke:#181818;stroke-width:1;" x1="267" x2="267" y1="362.94" y2="370.94"/><ellipse cx="267" cy="356.94" fill="none" rx="4" ry="4" style="stroke:#181818;stroke-width:1;"/></g><!--link Lesson to Content--><g class="link" data-entity-1="ent0004" data-entity-2="ent0005" data-link-type="crowfoot" data-source-line="84" id="lnk14"><path codeLine="84" d="M206.3237,489.8272 C182.3237,514.0872 172.5491,523.9636 148.5691,548.2036" fill="none" id="Lesson-Content" style="stroke:#181818;stroke-width:1;"/><line style="stroke:#181818;stroke-width:1;" x1="206.2932" x2="211.9805" y1="484.1705" y2="489.7968"/><line style="stroke:#181818;stroke-width:1;" x1="204.1834" x2="209.8706" y1="486.3032" y2="491.9295"/><line style="stroke:#181818;stroke-width:1;" x1="206.3237" x2="211.95" y1="489.8272" y2="484.14"/><line style="stroke:#181818;stroke-width:1;" x1="141.5363" x2="140.1755" y1="555.3127" y2="565.2197"/><line style="stroke:#181818;stroke-width:1;" x1="141.5363" x2="131.6445" y1="555.3127" y2="556.7803"/><line style="stroke:#181818;stroke-width:1;" x1="141.5363" x2="135.91" y1="555.3127" y2="561"/><ellipse cx="145.756" cy="551.0473" fill="none" rx="4" ry="4" style="stroke:#181818;stroke-width:1;"/></g><!--link Lesson to Exercise--><g class="link" data-entity-1="ent0004" data-entity-2="ent0006" data-link-type="crowfoot" data-source-line="85" id="lnk15"><path codeLine="85" d="M267,492.14 C267,516.4 267,518.76 267,543" fill="none" id="Lesson-Exercise" style="stroke:#181818;stroke-width:1;"/><line style="stroke:#181818;stroke-width:1;" x1="263" x2="271" y1="488.14" y2="488.14"/><line style="stroke:#181818;stroke-width:1;" x1="263" x2="271" y1="491.14" y2="491.14"/><line style="stroke:#181818;stroke-width:1;" x1="267" x2="267" y1="492.14" y2="484.14"/><line style="stroke:#181818;stroke-width:1;" x1="267" x2="273" y1="553" y2="561"/><line style="stroke:#181818;stroke-width:1;" x1="267" x2="261" y1="553" y2="561"/><line style="stroke:#181818;stroke-width:1;" x1="267" x2="267" y1="553" y2="561"/><ellipse cx="267" cy="547" fill="none" rx="4" ry="4" style="stroke:#181818;stroke-width:1;"/></g><!--link Exercise to AnswerOption--><g class="link" data-entity-1="ent0006" data-entity-2="ent0007" data-link-type="crowfoot" data-source-line="86" id="lnk16"><path codeLine="86" d="M267,682.02 C267,701.82 267,697.91 267,716.97" fill="none" id="Exercise-AnswerOption" style="stroke:#181818;stroke-width:1;"/><line style="stroke:#181818;stroke-width:1;" x1="263" x2="271" y1="678.02" y2="678.02"/><line style="stroke:#181818;stroke-width:1;" x1="263" x2="271" y1="681.02" y2="681.02"/><line style="stroke:#181818;stroke-width:1;" x1="267" x2="267" y1="682.02" y2="674.02"/><line style="stroke:#181818;stroke-width:1;" x1="267" x2="273" y1="726.97" y2="734.97"/><line style="stroke:#181818;stroke-width:1;" x1="267" x2="261" y1="726.97" y2="734.97"/><line style="stroke:#181818;stroke-width:1;" x1="267" x2="267" y1="726.97" y2="734.97"/><ellipse cx="267" cy="720.97" fill="none" rx="4" ry="4" style="stroke:#181818;stroke-width:1;"/></g><!--link Course to Assessment--><g class="link" data-entity-1="ent0002" data-entity-2="ent0008" data-link-type="crowfoot" data-source-line="88" id="lnk17"><path codeLine="88" d="M412.199,143.1214 C423.759,162.9514 423.3113,162.1714 434.5213,181.3914" fill="none" id="Course-Assessment" style="stroke:#181818;stroke-width:1;"/><line style="stroke:#181818;stroke-width:1;" x1="406.7288" x2="413.6402" y1="141.6802" y2="137.6512"/><line style="stroke:#181818;stroke-width:1;" x1="408.2397" x2="415.1511" y1="144.272" y2="140.2429"/><line style="stroke:#181818;stroke-width:1;" x1="412.199" x2="408.17" y1="143.1214" y2="136.21"/><line style="stroke:#181818;stroke-width:1;" x1="439.5595" x2="448.7729" y1="190.0295" y2="193.9171"/><line style="stroke:#181818;stroke-width:1;" x1="439.5595" x2="438.4071" y1="190.0295" y2="199.9629"/><line style="stroke:#181818;stroke-width:1;" x1="439.5595" x2="443.59" y1="190.0295" y2="196.94"/><ellipse cx="436.5366" cy="184.8466" fill="none" rx="4" ry="4" style="stroke:#181818;stroke-width:1;"/></g><!--link User to Group--><g class="link" data-entity-1="ent0009" data-entity-2="ent0010" data-link-type="crowfoot" data-source-line="90" id="lnk18"><path codeLine="90" d="M562.2288,492.2536 C561.5988,507.9336 563.55,516.62 570,531 C577.9,548.62 577.9316,552.1709 592.3716,564.9309" fill="none" id="User-Group" style="stroke:#181818;stroke-width:1;"/><line style="stroke:#181818;stroke-width:1;" x1="558.3926" x2="566.3862" y1="488.0962" y2="488.4174"/><line style="stroke:#181818;stroke-width:1;" x1="558.2722" x2="566.2658" y1="491.0938" y2="491.4149"/><line style="stroke:#181818;stroke-width:1;" x1="562.2288" x2="562.55" y1="492.2536" y2="484.26"/><line style="stroke:#181818;stroke-width:1;" x1="599.8652" x2="609.833" y1="571.5526" y2="572.3539"/><line style="stroke:#181818;stroke-width:1;" x1="599.8652" x2="601.887" y1="571.5526" y2="581.3461"/><line style="stroke:#181818;stroke-width:1;" x1="599.8652" x2="605.86" y1="571.5526" y2="576.85"/><ellipse cx="595.3691" cy="567.5796" fill="none" rx="4" ry="4" style="stroke:#181818;stroke-width:1;"/><text fill="#000000" font-family="sans-serif" font-size="13" lengthAdjust="spacing" textLength="51.2192" x="571" y="527.0669">teaches</text></g><!--link Group to User--><g class="link" data-entity-1="ent0010" data-entity-2="ent0009" data-link-type="crowfoot" data-source-line="91" id="lnk19"><path codeLine="91" d="M650.2956,569.2403 C643.4356,549.9003 637.04,534.1 627,514 C622.06,504.11 625.5819,509.3042 619.6819,499.5442" fill="none" id="Group-User" style="stroke:#181818;stroke-width:1;"/><line style="stroke:#181818;stroke-width:1;" x1="655.4027" x2="647.8629" y1="571.6729" y2="574.3473"/><line style="stroke:#181818;stroke-width:1;" x1="654.3998" x2="646.86" y1="568.8455" y2="571.5199"/><line style="stroke:#181818;stroke-width:1;" x1="650.2956" x2="652.97" y1="569.2403" y2="576.78"/><line style="stroke:#181818;stroke-width:1;" x1="614.5086" x2="605.2353" y1="490.9863" y2="487.244"/><line style="stroke:#181818;stroke-width:1;" x1="614.5086" x2="615.5047" y1="490.9863" y2="481.036"/><line style="stroke:#181818;stroke-width:1;" x1="614.5086" x2="610.37" y1="490.9863" y2="484.14"/><ellipse cx="617.6126" cy="496.121" fill="none" rx="4" ry="4" style="stroke:#181818;stroke-width:1;"/><text fill="#000000" font-family="sans-serif" font-size="13" lengthAdjust="spacing" textLength="56.4688" x="636" y="527.0669">students</text></g><!--link Lesson to StudentProgress--><g class="link" data-entity-1="ent0004" data-entity-2="ent0011" data-link-type="crowfoot" data-source-line="93" id="lnk20"><path codeLine="93" d="M333.2624,489.562 C359.5824,513.822 371.2443,524.561 397.5443,548.801" fill="none" id="Lesson-StudentProgress" style="stroke:#181818;stroke-width:1;"/><line style="stroke:#181818;stroke-width:1;" x1="327.6102" x2="333.0322" y1="489.7922" y2="483.9098"/><line style="stroke:#181818;stroke-width:1;" x1="329.8161" x2="335.2381" y1="491.8254" y2="485.943"/><line style="stroke:#181818;stroke-width:1;" x1="333.2624" x2="327.38" y1="489.562" y2="484.14"/><line style="stroke:#181818;stroke-width:1;" x1="404.8975" x2="414.8463" y1="555.5782" y2="556.5881"/><line style="stroke:#181818;stroke-width:1;" x1="404.8975" x2="406.7137" y1="555.5782" y2="565.4119"/><line style="stroke:#181818;stroke-width:1;" x1="404.8975" x2="410.78" y1="555.5782" y2="561"/><ellipse cx="400.4856" cy="551.5119" fill="none" rx="4" ry="4" style="stroke:#181818;stroke-width:1;"/></g><!--link User to StudentProgress--><g class="link" data-entity-1="ent0009" data-entity-2="ent0011" data-link-type="crowfoot" data-source-line="94" id="lnk21"><path codeLine="94" d="M538.9954,491.172 C525.8354,515.432 522.8432,520.9382 509.6932,545.1782" fill="none" id="User-StudentProgress" style="stroke:#181818;stroke-width:1;"/><line style="stroke:#181818;stroke-width:1;" x1="537.3867" x2="544.4187" y1="485.7487" y2="489.5633"/><line style="stroke:#181818;stroke-width:1;" x1="535.9563" x2="542.9883" y1="488.3857" y2="492.2003"/><line style="stroke:#181818;stroke-width:1;" x1="538.9954" x2="542.81" y1="491.172" y2="484.14"/><line style="stroke:#181818;stroke-width:1;" x1="504.9248" x2="506.3839" y1="553.9681" y2="563.8611"/><line style="stroke:#181818;stroke-width:1;" x1="504.9248" x2="495.8361" y1="553.9681" y2="558.1389"/><line style="stroke:#181818;stroke-width:1;" x1="504.9248" x2="501.11" y1="553.9681" y2="561"/><ellipse cx="507.7858" cy="548.6942" fill="none" rx="4" ry="4" style="stroke:#181818;stroke-width:1;"/></g><?plantuml-src dLHDJyCm3BtdL-J60UqFS4DiGaWW9j3ELTQOBQXDYft09k2_uoPPlvZOnALodjFtQlkv5t9XlV5x-GILyiPPsff6petQeAhbYqC9zw3G6hkHIxx1I2q4f7TkN402-Ical2nZN1Wjh-HgTJTdR3RZ1r-iW37oo1mCK5Y_Gkc74EXGHl6YWdUeXYaDLA9fsYJ37dPUV7Vw3qw7AklNCJv3tw46B8pLi6FOs27XFH2nK2IiOlmlGYxIAn-el_Kzw9dr71wQ5Wz7HFRDI6FjzFvG_zybB7Q0fJbC1VBfjC9R08eZQ3NEaxgsz07uc8OJvLH4ZeWbpaxCK54wn6I3jNCLA3ia9kBcrrsRL7S-nr_b5behw8A7WAs0LXwygM6K1Ak7gLvyHO19Dj2nMgogHtfGApEoBBhX1_N4j-X2avWtRNYAkd_psGVDuHBT1haHYQF9fzyqK_ErPJk4pfobgviAF3T1-KaFBaR_0H8Yh_ZNrspcFlF2YRnt6KnB8_BkP33RV88Up2awb-R4q4fJqTuDGiJXP3pritMgugcIIEUSZ1VR3iJESI7Z3vbqTCGxoVq0?></g></svg>