<?plantuml 1.2026.2?><svg xmlns="http://www.w3.org/2000/svg" xmlns:xlink="http://www.w3.org/1999/xlink" contentStyleType="text/css" data-diagram-type="SEQUENCE" height="502px" preserveAspectRatio="none" style="width:917px;height:502px;background:#FFFFFF;" version="1.1" viewBox="0 0 917 502" width="917px" zoomAndPan="magnify"><defs/><g><g class="participant-lifeline" data-entity-uid="part1" data-qualified-name="Student" id="part1-lifeline"><g><title>Student</title><rect fill="#000000" fill-opacity="0.00000" height="340.4609" width="8" x="31.5557" y="81.2969"/><line style="stroke:#181818;stroke-width:0.5;stroke-dasharray:5,5;" x1="35" x2="35" y1="81.2969" y2="421.7578"/></g></g><g class="participant-lifeline" data-entity-uid="part2" data-qualified-name="Front-end" id="part2-lifeline"><g><title>Front-end</title><rect fill="#000000" fill-opacity="0.00000" height="340.4609" width="8" x="163.688" y="81.2969"/><line style="stroke:#181818;stroke-width:0.5;stroke-dasharray:5,5;" x1="167.6074" x2="167.6074" y1="81.2969" y2="421.7578"/></g></g><g class="participant-lifeline" data-entity-uid="part3" data-qualified-name="Authentication Service" id="part3-lifeline"><g><title>Authentication Service</title><rect fill="#000000" fill-opacity="0.00000" height="340.4609" width="8" x="301.25" y="81.2969"/><line style="stroke:#181818;stroke-width:0.5;stroke-dasharray:5,5;" x1="304.7686" x2="304.7686" y1="81.2969" y2="421.7578"/></g></g><g class="participant-lifeline" data-entity-uid="part4" data-qualified-name="IAM System" id="part4-lifeline"><g><title>IAM System</title><rect fill="#000000" fill-opacity="0.00000" height="340.4609" width="8" x="445.9521" y="81.2969"/><line style="stroke:#181818;stroke-width:0.5;stroke-dasharray:5,5;" x1="449.7314" x2="449.7314" y1="81.2969" y2="421.7578"/></g></g><g class="participant-lifeline" data-entity-uid="part5" data-qualified-name="Lesson Service" id="part5-lifeline"><g><title>Lesson Service</title><rect fill="#000000" fill-opacity="0.00000" height="340.4609" width="8" x="563.4883" y="81.2969"/><line style="stroke:#181818;stroke-width:0.5;stroke-dasharray:5,5;" x1="567.1729" x2="567.1729" y1="81.2969" y2="421.7578"/></g></g><g class="participant-lifeline" data-entity-uid="part6" data-qualified-name="Progress Service" id="part6-lifeline"><g><title>Progress Service</title><rect fill="#000000" fill-opacity="0.00000" height="340.4609" width="8" x="698.2031" y="81.2969"/><line style="stroke:#181818;stroke-width:0.5;stroke-dasharray:5,5;" x1="701.8037" x2="701.8037" y1="81.2969" y2="421.7578"/></g></g><g class="participant-lifeline" data-entity-uid="part7" data-qualified-name="Learning Database" id="part7-lifeline"><g><title>Learning Database</title><rect fill="#000000" fill-opacity="0.00000" height="340.4609" width="8" x="842.8633" y="81.2969"/><line style="stroke:#181818;stroke-width:0.5;stroke-dasharray:5,5;" x1="846.6025" x2="846.6025" y1="81.2969" y2="421.7578"/></g></g><g class="participant participant-head" data-entity-uid="part1" data-qualified-name="Student" id="part1-head"><text fill="#000000" font-family="sans-serif" font-size="14" lengthAdjust="spacing" textLength="55.1113" x="5" y="77.9951">Student</text><ellipse cx="35.5557" cy="13.5" fill="#E2E2F0" rx="8" ry="8" style="stroke:#181818;stroke-width:0.5;"/><path d="M35.5557,21.5 L35.5557,48.5 M22.5557,29.5 L48.5557,29.5 M35.5557,48.5 L22.5557,63.5 M35.5557,48.5 L48.5557,63.5" fill="none" style="stroke:#181818;stroke-width:0.5;"/></g><g class="participant participant-tail" data-entity-uid="part1" data-qualified-name="Student" id="part1-tail"><text fill="#000000" font-family="sans-serif" font-size="14" lengthAdjust="spacing" textLength="55.1113" x="5" y="433.7529">Student</text><ellipse cx="35.5557" cy="445.5547" fill="#E2E2F0" rx="8" ry="8" style="stroke:#181818;stroke-width:0.5;"/><path d="M35.5557,453.5547 L35.5557,480.5547 M22.5557,461.5547 L48.5557,461.5547 M35.5557,480.5547 L22.5557,495.5547 M35.5557,480.5547 L48.5557,495.5547" fill="none" style="stroke:#181818;stroke-width:0.5;"/></g><g class="participant participant-head" data-entity-uid="part2" data-qualified-name="Front-end" id="part2-head"><rect fill="#E2E2F0" height="30.2969" rx="2.5" ry="2.5" style="stroke:#181818;stroke-width:0.5;" width="82.1611" x="126.6074" y="50"/><text fill="#000000" font-family="sans-serif" font-size="14" lengthAdjust="spacing" textLength="68.1611" x="133.6074" y="69.9951">Front-end</text></g><g class="participant participant-tail" data-entity-uid="part2" data-qualified-name="Front-end" id="part2-tail"><rect fill="#E2E2F0" height="30.2969" rx="2.5" ry="2.5" style="stroke:#181818;stroke-width:0.5;" width="82.1611" x="126.6074" y="420.7578"/><text fill="#000000" font-family="sans-serif" font-size="14" lengthAdjust="spacing" textLength="68.1611" x="133.6074" y="440.7529">Front-end</text></g><g class="participant participant-head" data-entity-uid="part3" data-qualified-name="Authentication Service" id="part3-head"><rect fill="#E2E2F0" height="30.2969" rx="2.5" ry="2.5" style="stroke:#181818;stroke-width:0.5;" width="172.9629" x="218.7686" y="50"/><text fill="#000000" font-family="sans-serif" font-size="14" lengthAdjust="spacing" textLength="158.9629" x="225.7686" y="69.9951">Authentication Service</text></g><g class="participant participant-tail" data-entity-uid="part3" data-qualified-name="Authentication Service" id="part3-tail"><rect fill="#E2E2F0" height="30.2969" rx="2.5" ry="2.5" style="stroke:#181818;stroke-width:0.5;" width="172.9629" x="218.7686" y="420.7578"/><text fill="#000000" font-family="sans-serif" font-size="14" lengthAdjust="spacing" textLength="158.9629" x="225.7686" y="440.7529">Authentication Service</text></g><g class="participant participant-head" data-entity-uid="part4" data-qualified-name="IAM System" id="part4-head"><rect fill="#E2E2F0" height="30.2969" rx="2.5" ry="2.5" style="stroke:#181818;stroke-width:0.5;" width="96.4414" x="401.7314" y="50"/><text fill="#000000" font-family="sans-serif" font-size="14" lengthAdjust="spacing" textLength="82.4414" x="408.7314" y="69.9951">IAM System</text></g><g class="participant participant-tail" data-entity-uid="part4" data-qualified-name="IAM System" id="part4-tail"><rect fill="#E2E2F0" height="30.2969" rx="2.5" ry="2.5" style="stroke:#181818;stroke-width:0.5;" width="96.4414" x="401.7314" y="420.7578"/><text fill="#000000" font-family="sans-serif" font-size="14" lengthAdjust="spacing" textLength="82.4414" x="408.7314" y="440.7529">IAM System</text></g><g class="participant participant-head" data-entity-uid="part5" data-qualified-name="Lesson Service" id="part5-head"><rect fill="#E2E2F0" height="30.2969" rx="2.5" ry="2.5" style="stroke:#181818;stroke-width:0.5;" width="118.6309" x="508.1729" y="50"/><text fill="#000000" font-family="sans-serif" font-size="14" lengthAdjust="spacing" textLength="104.6309" x="515.1729" y="69.9951">Lesson Service</text></g><g class="participant participant-tail" data-entity-uid="part5" data-qualified-name="Lesson Service" id="part5-tail"><rect fill="#E2E2F0" height="30.2969" rx="2.5" ry="2.5" style="stroke:#181818;stroke-width:0.5;" width="118.6309" x="508.1729" y="420.7578"/><text fill="#000000" font-family="sans-serif" font-size="14" lengthAdjust="spacing" textLength="104.6309" x="515.1729" y="440.7529">Lesson Service</text></g><g class="participant participant-head" data-entity-uid="part6" data-qualified-name="Progress Service" id="part6-head"><rect fill="#E2E2F0" height="30.2969" rx="2.5" ry="2.5" style="stroke:#181818;stroke-width:0.5;" width="130.7988" x="636.8037" y="50"/><text fill="#000000" font-family="sans-serif" font-size="14" lengthAdjust="spacing" textLength="116.7988" x="643.8037" y="69.9951">Progress Service</text></g><g class="participant participant-tail" data-entity-uid="part6" data-qualified-name="Progress Service" id="part6-tail"><rect fill="#E2E2F0" height="30.2969" rx="2.5" ry="2.5" style="stroke:#181818;stroke-width:0.5;" width="130.7988" x="636.8037" y="420.7578"/><text fill="#000000" font-family="sans-serif" font-size="14" lengthAdjust="spacing" textLength="116.7988" x="643.8037" y="440.7529">Progress Service</text></g><g class="participant participant-head" data-entity-uid="part7" data-qualified-name="Learning Database" id="part7-head"><text fill="#000000" font-family="sans-serif" font-size="14" lengthAdjust="spacing" textLength="132.5215" x="777.6025" y="77.9951">Learning Database</text><path d="M828.8633,29 C828.8633,19 846.8633,19 846.8633,19 C846.8633,19 864.8633,19 864.8633,29 L864.8633,55 C864.8633,65 846.8633,65 846.8633,65 C846.8633,65 828.8633,65 828.8633,55 L828.8633,29" fill="#E2E2F0" style="stroke:#181818;stroke-width:0.5;"/><path d="M828.8633,29 C828.8633,39 846.8633,39 846.8633,39 C846.8633,39 864.8633,39 864.8633,29" fill="none" style="stroke:#181818;stroke-width:0.5;"/></g><g class="participant participant-tail" data-entity-uid="part7" data-qualified-name="Learning Database" id="part7-tail"><text fill="#000000" font-family="sans-serif" font-size="14" lengthAdjust="spacing" textLength="132.5215" x="777.6025" y="433.7529">Learning Database</text><path d="M828.8633,447.0547 C828.8633,437.0547 846.8633,437.0547 846.8633,437.0547 C846.8633,437.0547 864.8633,437.0547 864.8633,447.0547 L864.8633,473.0547 C864.8633,483.0547 846.8633,483.0547 846.8633,483.0547 C846.8633,483.0547 828.8633,483.0547 828.8633,473.0547 L828.8633,447.0547" fill="#E2E2F0" style="stroke:#181818;stroke-width:0.5;"/><path d="M828.8633,447.0547 C828.8633,457.0547 846.8633,457.0547 846.8633,457.0547 C846.8633,457.0547 864.8633,457.0547 864.8633,447.0547" fill="none" style="stroke:#181818;stroke-width:0.5;"/></g><g class="message" data-entity-1="part1" data-entity-2="part2" id="msg1"><polygon fill="#181818" points="155.688,108.4297,165.688,112.4297,155.688,116.4297,159.688,112.4297" style="stroke:#181818;stroke-width:1;"/><line style="stroke:#181818;stroke-width:1;" x1="35.5557" x2="161.688" y1="112.4297" y2="112.4297"/><text fill="#000000" font-family="sans-serif" font-size="13" lengthAdjust="spacing" textLength="80.2026" x="42.5557" y="107.3638">Open lesson</text></g><g class="message" data-entity-1="part2" data-entity-2="part3" id="msg2"><polygon fill="#181818" points="293.25,137.5625,303.25,141.5625,293.25,145.5625,297.25,141.5625" style="stroke:#181818;stroke-width:1;"/><line style="stroke:#181818;stroke-width:1;" x1="167.688" x2="299.25" y1="141.5625" y2="141.5625"/><text fill="#000000" font-family="sans-serif" font-size="13" lengthAdjust="spacing" textLength="105.6504" x="174.688" y="136.4966">Validate session</text></g><g class="message" data-entity-1="part3" data-entity-2="part4" id="msg3"><polygon fill="#181818" points="437.9521,166.6953,447.9521,170.6953,437.9521,174.6953,441.9521,170.6953" style="stroke:#181818;stroke-width:1;"/><line style="stroke:#181818;stroke-width:1;" x1="305.25" x2="443.9521" y1="170.6953" y2="170.6953"/><text fill="#000000" font-family="sans-serif" font-size="13" lengthAdjust="spacing" textLength="79.0664" x="312.25" y="165.6294">Verify token</text></g><g class="message" data-entity-1="part4" data-entity-2="part3" id="msg4"><polygon fill="#181818" points="316.25,195.8281,306.25,199.8281,316.25,203.8281,312.25,199.8281" style="stroke:#181818;stroke-width:1;"/><line style="stroke:#181818;stroke-width:1;stroke-dasharray:2,2;" x1="310.25" x2="448.9521" y1="199.8281" y2="199.8281"/><text fill="#000000" font-family="sans-serif" font-size="13" lengthAdjust="spacing" textLength="18.7573" x="322.25" y="194.7622">OK</text></g><g class="message" data-entity-1="part2" data-entity-2="part5" id="msg5"><polygon fill="#181818" points="555.4883,224.9609,565.4883,228.9609,555.4883,232.9609,559.4883,228.9609" style="stroke:#181818;stroke-width:1;"/><line style="stroke:#181818;stroke-width:1;" x1="167.688" x2="561.4883" y1="228.9609" y2="228.9609"/><text fill="#000000" font-family="sans-serif" font-size="13" lengthAdjust="spacing" textLength="152.7754" x="174.688" y="223.895">Request lesson content</text></g><g class="message" data-entity-1="part5" data-entity-2="part7" id="msg6"><polygon fill="#181818" points="834.8633,254.0938,844.8633,258.0938,834.8633,262.0938,838.8633,258.0938" style="stroke:#181818;stroke-width:1;"/><line style="stroke:#181818;stroke-width:1;" x1="567.4883" x2="840.8633" y1="258.0938" y2="258.0938"/><text fill="#000000" font-family="sans-serif" font-size="13" lengthAdjust="spacing" textLength="76.8955" x="574.4883" y="253.0278">Load lesson</text></g><g class="message" data-entity-1="part7" data-entity-2="part5" id="msg7"><polygon fill="#181818" points="578.4883,283.2266,568.4883,287.2266,578.4883,291.2266,574.4883,287.2266" style="stroke:#181818;stroke-width:1;"/><line style="stroke:#181818;stroke-width:1;stroke-dasharray:2,2;" x1="572.4883" x2="845.8633" y1="287.2266" y2="287.2266"/><text fill="#000000" font-family="sans-serif" font-size="13" lengthAdjust="spacing" textLength="78.3936" x="584.4883" y="282.1606">Lesson data</text></g><g class="message" data-entity-1="part5" data-entity-2="part2" id="msg8"><polygon fill="#181818" points="178.688,312.3594,168.688,316.3594,178.688,320.3594,174.688,316.3594" style="stroke:#181818;stroke-width:1;"/><line style="stroke:#181818;stroke-width:1;stroke-dasharray:2,2;" x1="172.688" x2="566.4883" y1="316.3594" y2="316.3594"/><text fill="#000000" font-family="sans-serif" font-size="13" lengthAdjust="spacing" textLength="98.8838" x="184.688" y="311.2935">Lesson content</text></g><g class="message" data-entity-1="part1" data-entity-2="part2" id="msg9"><polygon fill="#181818" points="155.688,341.4922,165.688,345.4922,155.688,349.4922,159.688,345.4922" style="stroke:#181818;stroke-width:1;"/><line style="stroke:#181818;stroke-width:1;" x1="35.5557" x2="161.688" y1="345.4922" y2="345.4922"/><text fill="#000000" font-family="sans-serif" font-size="13" lengthAdjust="spacing" textLength="108.1323" x="42.5557" y="340.4263">Complete lesson</text></g><g class="message" data-entity-1="part2" data-entity-2="part6" id="msg10"><polygon fill="#181818" points="690.2031,370.625,700.2031,374.625,690.2031,378.625,694.2031,374.625" style="stroke:#181818;stroke-width:1;"/><line style="stroke:#181818;stroke-width:1;" x1="167.688" x2="696.2031" y1="374.625" y2="374.625"/><text fill="#000000" font-family="sans-serif" font-size="13" lengthAdjust="spacing" textLength="92.7329" x="174.688" y="369.5591">Save progress</text></g><g class="message" data-entity-1="part6" data-entity-2="part7" id="msg11"><polygon fill="#181818" points="834.8633,399.7578,844.8633,403.7578,834.8633,407.7578,838.8633,403.7578" style="stroke:#181818;stroke-width:1;"/><line style="stroke:#181818;stroke-width:1;" x1="702.2031" x2="840.8633" y1="403.7578" y2="403.7578"/><text fill="#000000" font-family="sans-serif" font-size="13" lengthAdjust="spacing" textLength="95.4688" x="709.2031" y="398.6919">Store progress</text></g><?plantuml-src VP91JiGm34NtEONLVI_00ca4Ga8K3I8IUvEQ8QAJXCGTQMwF0q5aseQj__kn_Hqqx2DedaToh5J0oDROW8wXkulUSKzkx2xhkvdVXRO6sNe7ckB96bf0zxj7qEV4T5m80wNKT3r5VuW2_CaZChvYecp4wAmxm6qfTKgLmQ6_hiU5AzW7SZ1zjrAgbZBPM41iBpXPwKYGn2gQQhBvdMh7xALetyx0_eF4Lslz_qtt3-iH5oa9zKoVCoKkIu4HF9ziHVwubr790uF7yJUIBQBVxbig-Gvgezig-U5ollQ9RlmnJ2HPjywq-WnYqdWY24LG6qXpVIqVlR9-0G00?></g></svg>